<?xml version="1.0" encoding="UTF-8" standalone="no"?>
<!-- Uploaded to: SVG Repo, www.svgrepo.com, Generator: SVG Repo Mixer Tools -->

<svg
   fill="#000000"
   height="96.291"
   width="96.291443"
   version="1.1"
   id="Capa_1"
   viewBox="0 0 34.368221 34.368063"
   xml:space="preserve"
   sodipodi:docname="bear.svg"
   inkscape:version="1.2.2 (732a01da63, 2022-12-09)"
   xmlns:inkscape="http://www.inkscape.org/namespaces/inkscape"
   xmlns:sodipodi="http://sodipodi.sourceforge.net/DTD/sodipodi-0.dtd"
   xmlns="http://www.w3.org/2000/svg"
   xmlns:svg="http://www.w3.org/2000/svg"><defs
   id="defs7" /><sodipodi:namedview
   id="namedview5"
   pagecolor="#ffffff"
   bordercolor="#000000"
   borderopacity="0.25"
   inkscape:showpageshadow="2"
   inkscape:pageopacity="0.0"
   inkscape:pagecheckerboard="0"
   inkscape:deskcolor="#d1d1d1"
   showgrid="false"
   inkscape:zoom="1.04625"
   inkscape:cx="-257.58662"
   inkscape:cy="-14.814815"
   inkscape:window-width="1550"
   inkscape:window-height="1368"
   inkscape:window-x="-7"
   inkscape:window-y="0"
   inkscape:window-maximized="0"
   inkscape:current-layer="Capa_1" />

<circle
   style="fill:#000000;fill-opacity:0.0297873;stroke:#ff0000;stroke-width:1.17653;stroke-dasharray:none;stroke-opacity:1"
   id="path219"
   cx="17.184111"
   cy="17.184111"
   r="16.595846" /><path
   d="m 7.7139903,25.764675 c -0.01,-0.95916 -0.68136,-1.32146 -0.68136,-1.32146 0,0 2.62204,0.22086 2.68681,-3.24635 0,0 0.26363,-1.24347 6.1754497,-0.73046 0.49866,0.0435 1.68074,2.80361 1.76392,3.69298 0.0839,0.89013 0.15023,1.60529 0.15023,1.60529 h 4.55034 c -0.0396,-1.07265 -0.85954,-1.42164 -1.32004,-1.81293 0.39044,-3.36589 1.0431,-6.60744 2.59711,-6.67901 1.21145,-0.0553 2.28192,-0.42802 2.80493,-0.8144 0.52338,-0.38609 3.81941,-0.45776 4.10248,-0.77719 0.28724,-0.31887 1.17293,-1.23893 0.99391,-1.62814 -0.17459,-0.39167 -1.79225,-0.81657 -1.79225,-0.81657 0,0 -0.1946,-0.46079 -0.33596,-0.7468 -0.14172,-0.2826 -1.66769,-0.81439 -1.66769,-0.81439 0,0 -0.31557,-0.99342 -0.56371,-1.38443 -0.24994,-0.39139 -1.06461,0.67324 -1.06461,0.67324 0,0 -2.85111,0.004 -3.76059,-0.28223 -1.23969,-0.39101 -1.54307,-1.11883 -3.29678,-1.13563 -1.36347,-0.0118 -1.58716,0.91864 -2.8123,0.97331 -1.23448,0.0582 -3.53878,-0.80647 -6.7468997,-0.28723 -3.21246,0.51942 -4.45544,3.96086 -4.70104,5.13283 -0.24871,1.16868 0.70799,3.91063 0.81619,5.11197 0.10774,1.19785 -0.78229,2.0995 -0.97756,2.71466 -0.19187,0.61063 0.48618,2.57284 0.48618,2.57284 0,0 2.59645,0.24956 2.59324,10e-5 z"
   id="path6075"
   style="fill:#d40000;stroke-width:0.0944233" /></svg>
