<?xml version="1.0" encoding="UTF-8" standalone="no"?>
<!-- Uploaded to: SVG Repo, www.svgrepo.com, Generator: SVG Repo Mixer Tools -->

<svg
   fill="#000000"
   height="800px"
   width="800px"
   version="1.1"
   id="Capa_1"
   viewBox="0 0 285.535 285.535"
   xml:space="preserve"
   sodipodi:docname="hunting.svg"
   inkscape:version="1.2.2 (732a01da63, 2022-12-09)"
   xmlns:inkscape="http://www.inkscape.org/namespaces/inkscape"
   xmlns:sodipodi="http://sodipodi.sourceforge.net/DTD/sodipodi-0.dtd"
   xmlns="http://www.w3.org/2000/svg"
   xmlns:svg="http://www.w3.org/2000/svg"><defs
   id="defs7"><rect
     x="540.02389"
     y="449.22342"
     width="79.330944"
     height="103.22581"
     id="rect2359" /></defs><sodipodi:namedview
   id="namedview5"
   pagecolor="#ffffff"
   bordercolor="#000000"
   borderopacity="0.25"
   inkscape:showpageshadow="2"
   inkscape:pageopacity="0.0"
   inkscape:pagecheckerboard="0"
   inkscape:deskcolor="#d1d1d1"
   showgrid="false"
   inkscape:zoom="0.73981047"
   inkscape:cx="4.7309414"
   inkscape:cy="408.21266"
   inkscape:window-width="1920"
   inkscape:window-height="1017"
   inkscape:window-x="-8"
   inkscape:window-y="-8"
   inkscape:window-maximized="1"
   inkscape:current-layer="Layer_2" />

<circle
   style="fill:#000000;fill-opacity:0.1;stroke:#ff0000;stroke-width:1.17653;stroke-dasharray:none;stroke-opacity:1"
   id="path219"
   cx="139.5484"
   cy="127.8083"
   r="16.595846" /><text
   xml:space="preserve"
   style="font-size:22.8428px;font-family:SpeedballNo3;-inkscape-font-specification:'SpeedballNo3, Normal';fill:#000000;fill-opacity:0.0297873;stroke:#ff0000;stroke-width:1.42696"
   x="107.80055"
   y="56.970543"
   id="text2295"><tspan
     sodipodi:role="line"
     style="stroke-width:1.42696"
     x="107.80055"
     y="56.970543"
     id="tspan2303" /><tspan
     sodipodi:role="line"
     style="stroke-width:1.42696"
     x="107.80055"
     y="85.52404"
     id="tspan2305" /></text><text
   xml:space="preserve"
   transform="scale(0.35691875)"
   id="text2357"
   style="font-size:64px;font-family:SpeedballNo3;-inkscape-font-specification:'SpeedballNo3, Normal';white-space:pre;shape-inside:url(#rect2359);display:inline;fill:#000000;fill-opacity:0.0297873;stroke:#ff0000;stroke-width:3.998" /><g
   id="Layer_2"
   transform="matrix(0.74757406,0,0,0.74757406,119.22136,108.63239)"
   style="fill:#d40000;fill-opacity:0.839216;stroke:#ff0000;stroke-opacity:1">



<path
   fill="#000000"
   d="m 31.1854,18.727014 0.634711,0.842212 9.61825,-7.299129 -0.634711,-0.842211 z m -5.803901,4.406326 1.544044,2.032287 -4.192723,3.948603 -1.312135,-0.616395 0.567576,-2.789048 z m -12.840603,12.35237 6.048022,-5.816105 c 0,0 1.32434,0.640802 1.678312,0.530958 0.03049,-0.01222 0.06103,-0.02446 0.08544,-0.04879 0.158678,-0.122062 0.366179,-0.421101 0.555369,-0.732354 l 0.06714,0.03045 1.159561,0.537059 -6.176184,9.026262 c -0.415008,-2.459489 -3.149133,-3.509186 -3.417661,-3.527504 z m 13.676712,-12.98707 4.131694,-3.130812 1.043596,1.37927 c 0.286847,0.384476 0.23802,0.945954 -0.146468,1.232789 l -3.442066,2.612058 -0.04268,-0.06102 z m -3.954715,11.12567 c 0.482132,0.292949 1.116839,0.140367 1.409781,-0.347866 l 0.854411,-1.409778 c 0.207498,-0.347877 0.195294,-0.78118 -0.03668,-1.116842 0.07936,-0.04268 0.152571,-0.09158 0.219703,-0.140366 0.32956,-0.244122 0.549274,-0.604191 0.616407,-1.000883 0.06713,-0.414997 -0.03057,-0.842211 -0.26853,-1.238902 l -0.39059,0.372284 c 0.128163,0.23802 0.183091,0.512651 0.140366,0.787282 -0.06102,0.39059 -0.347865,0.701833 -0.775074,0.866618 -0.469927,-0.189193 -1.006986,-0.01222 -1.263311,0.421099 l -0.854412,1.409779 c -0.292943,0.476028 -0.140368,1.104638 0.347868,1.397575 z m 0.103755,-1.135148 0.860515,-1.41588 c 0.146471,-0.238019 0.451619,-0.311254 0.689634,-0.170887 l 0.06714,0.04879 c 0.189189,0.158671 0.231914,0.433315 0.103755,0.640813 l -0.860516,1.41588 c -0.14647,0.238021 -0.451618,0.317356 -0.689633,0.170889 C 22.299522,33.038403 22.220186,32.72715 22.366655,32.48913 Z M 32.595189,20.954597 c -0.03057,-0.183092 -0.09158,-0.360081 -0.170887,-0.530957 l 8.812663,-6.682735 0.317355,0.421112 z m -11.760381,5.156984 -0.195293,0.952068 c -0.469927,-0.201397 -0.622501,-0.738467 -1.104637,-0.561478 0.146471,-0.524855 1.000886,-0.323458 1.29993,-0.39059 z"
   class="st0"
   id="path15531"
   style="fill:#d40000;fill-opacity:0.72;stroke:#ff0000;stroke-width:0.52708932;stroke-dasharray:none;stroke-opacity:1" /></g></svg>
