<?xml version="1.0" encoding="UTF-8" standalone="no"?>
<!-- Uploaded to: SVG Repo, www.svgrepo.com, Generator: SVG Repo Mixer Tools -->

<svg
   fill="#000000"
   height="99.999992"
   width="99.999992"
   version="1.1"
   id="Capa_1"
   viewBox="0 0 35.691872 35.691872"
   xml:space="preserve"
   sodipodi:docname="hunting.svg"
   inkscape:version="1.2.2 (732a01da63, 2022-12-09)"
   xmlns:inkscape="http://www.inkscape.org/namespaces/inkscape"
   xmlns:sodipodi="http://sodipodi.sourceforge.net/DTD/sodipodi-0.dtd"
   xmlns="http://www.w3.org/2000/svg"
   xmlns:svg="http://www.w3.org/2000/svg"><defs
   id="defs7"><rect
     x="540.02386"
     y="449.22342"
     width="79.33094"
     height="103.22581"
     id="rect2359" /></defs><sodipodi:namedview
   id="namedview5"
   pagecolor="#ffffff"
   bordercolor="#000000"
   borderopacity="0.25"
   inkscape:showpageshadow="2"
   inkscape:pageopacity="0.0"
   inkscape:pagecheckerboard="0"
   inkscape:deskcolor="#d1d1d1"
   showgrid="false"
   inkscape:zoom="0.73981047"
   inkscape:cx="-212.89236"
   inkscape:cy="-9.4618829"
   inkscape:window-width="2560"
   inkscape:window-height="1377"
   inkscape:window-x="-8"
   inkscape:window-y="-8"
   inkscape:window-maximized="1"
   inkscape:current-layer="Layer_2" />

<circle
   style="fill:#000000;fill-opacity:0.1;stroke:#ff0000;stroke-width:1.17653;stroke-dasharray:none;stroke-opacity:1"
   id="path219"
   cx="17.845936"
   cy="17.845936"
   r="17.257671" /><text
   xml:space="preserve"
   style="font-size:22.8428px;font-family:SpeedballNo3;-inkscape-font-specification:'SpeedballNo3, Normal';fill:#000000;fill-opacity:0.0297873;stroke:#ff0000;stroke-width:1.42696"
   x="72.108681"
   y="-53.653645"
   id="text2295"><tspan
     sodipodi:role="line"
     style="stroke-width:1.42696"
     x="72.108681"
     y="-53.653645"
     id="tspan2303" /><tspan
     sodipodi:role="line"
     style="stroke-width:1.42696"
     x="72.108681"
     y="-25.100147"
     id="tspan2305" /></text><text
   xml:space="preserve"
   transform="matrix(0.35691875,0,0,0.35691875,-35.691875,-110.62419)"
   id="text2357"
   style="font-size:64px;font-family:SpeedballNo3;-inkscape-font-specification:'SpeedballNo3, Normal';white-space:pre;shape-inside:url(#rect2359);display:inline;fill:#000000;fill-opacity:0.0297873;stroke:#ff0000;stroke-width:3.998" /><g
   id="Layer_2"
   transform="matrix(0.74757406,0,0,0.74757406,83.529485,-1.9917969)"
   style="fill:#d40000;fill-opacity:0.839216;stroke:#ff0000;stroke-opacity:1">



<path
   fill="#000000"
   d="m -83.708225,19.336196 0.660023,0.875799 10.001816,-7.590211 -0.660022,-0.875798 z m -6.035354,4.582046 1.605619,2.113333 -4.359925,4.106069 -1.364462,-0.640976 0.590211,-2.900273 z m -13.352681,12.84497 6.289218,-6.048045 c 0,0 1.377154,0.666356 1.745242,0.552132 0.03171,-0.01271 0.06346,-0.02544 0.08885,-0.05074 0.165006,-0.126929 0.380782,-0.437894 0.577517,-0.761559 l 0.06982,0.03166 1.205803,0.558476 -6.422484,9.386221 c -0.431554,-2.557571 -3.274716,-3.649129 -3.553956,-3.668178 z m 14.222133,-13.504981 4.296462,-3.255666 1.085213,1.434274 c 0.298286,0.399809 0.247512,0.983678 -0.152309,1.281952 l -3.579332,2.716224 -0.04438,-0.06345 z m -4.112425,11.569351 c 0.501359,0.304631 1.161377,0.145964 1.466001,-0.361739 l 0.888484,-1.465998 c 0.215773,-0.36175 0.203083,-0.812333 -0.03814,-1.161381 0.08253,-0.04438 0.158655,-0.09523 0.228464,-0.145964 0.342703,-0.253857 0.571179,-0.628285 0.640989,-1.040797 0.06981,-0.431547 -0.03179,-0.875797 -0.279239,-1.288308 l -0.406166,0.38713 c 0.133274,0.247512 0.190392,0.533095 0.145964,0.818678 -0.06345,0.406167 -0.361738,0.729822 -0.805984,0.901178 -0.488667,-0.196738 -1.047143,-0.01271 -1.31369,0.437892 l -0.888485,1.466 c -0.304626,0.495011 -0.145966,1.14869 0.36174,1.453309 z m 0.107892,-1.180417 0.894832,-1.472344 c 0.152312,-0.247511 0.469629,-0.323666 0.717136,-0.177702 l 0.06982,0.05074 c 0.196734,0.164999 0.241163,0.450595 0.107893,0.666368 l -0.894833,1.472344 c -0.152311,0.247513 -0.469628,0.330012 -0.717134,0.177704 -0.247514,-0.145962 -0.330013,-0.469627 -0.177703,-0.717139 z m 10.636445,-11.994552 c -0.03179,-0.190393 -0.09523,-0.374441 -0.177701,-0.552131 l 9.164103,-6.949236 0.330011,0.437906 z m -12.229373,5.362639 -0.203081,0.990036 c -0.488667,-0.209429 -0.647326,-0.767916 -1.148689,-0.583869 0.152312,-0.545786 1.040801,-0.336357 1.35177,-0.406167 z"
   class="st0"
   id="path15531"
   style="fill:#d40000;fill-opacity:0.72;stroke:#ff0000;stroke-width:0.527089;stroke-dasharray:none;stroke-opacity:1" /></g></svg>
