<?xml version="1.0" encoding="UTF-8" standalone="no"?>
<!-- Created with Inkscape (http://www.inkscape.org/) -->

<svg
   width="118.78221mm"
   height="107.64759mm"
   viewBox="0 0 118.78221 107.64759"
   version="1.1"
   id="svg5"
   xml:space="preserve"
   sodipodi:docname="logov2.svg"
   inkscape:version="1.2.2 (732a01da63, 2022-12-09)"
   xmlns:inkscape="http://www.inkscape.org/namespaces/inkscape"
   xmlns:sodipodi="http://sodipodi.sourceforge.net/DTD/sodipodi-0.dtd"
   xmlns="http://www.w3.org/2000/svg"
   xmlns:svg="http://www.w3.org/2000/svg"><sodipodi:namedview
     id="namedview7"
     pagecolor="#ffffff"
     bordercolor="#000000"
     borderopacity="0.25"
     inkscape:showpageshadow="2"
     inkscape:pageopacity="0.0"
     inkscape:pagecheckerboard="0"
     inkscape:deskcolor="#d1d1d1"
     inkscape:document-units="mm"
     showgrid="false"
     inkscape:zoom="0.74564393"
     inkscape:cx="-22.128525"
     inkscape:cy="390.26671"
     inkscape:window-width="2560"
     inkscape:window-height="1377"
     inkscape:window-x="-8"
     inkscape:window-y="-8"
     inkscape:window-maximized="1"
     inkscape:current-layer="layer1" /><defs
     id="defs2" /><g
     inkscape:label="Layer 1"
     inkscape:groupmode="layer"
     id="layer1"
     transform="translate(-46.579626,-21.550794)"><g
       style="fill:#00a300;fill-opacity:1"
       id="g2064"
       transform="matrix(2.423731,0,0,2.423731,38.106262,7.5101205)"><path
         d="m 9.9647,50.207 h 36.0704 c 3.9844,0 6.4689,-2.8594 6.4689,-6.4687 0,-1.0782 -0.2813,-2.1797 -0.8673,-3.1875 L 33.5663,9.0742 C 32.3476,6.9414 30.2147,5.793 28.0116,5.793 c -2.1797,0 -4.3359,1.1484 -5.5781,3.2812 l -18.0703,31.5 c -0.586,1.0078 -0.8672,2.0859 -0.8672,3.1641 0,3.6093 2.5078,6.4687 6.4687,6.4687 z m 0.0469,-3.6797 c -1.6406,0 -2.7187,-1.3359 -2.7187,-2.789 0,-0.4219 0.0703,-0.9141 0.3047,-1.4063 L 25.6444,10.8554 C 26.16,9.9648 27.0976,9.543 28.0116,9.543 c 0.9141,0 1.8047,0.3984 2.3203,1.3124 l 18.047,31.5001 c 0.2342,0.4687 0.3514,0.9609 0.3514,1.3828 0,1.4531 -1.1252,2.789 -2.7421,2.789 z"
         id="path2055"
         style="fill:#00a300;fill-opacity:1" /></g><g
       style="fill:#00a300;fill-opacity:1"
       id="g2075"
       transform="matrix(2.5836303,0,0,2.5836303,74.739629,79.809826)"><circle
         cx="12"
         cy="12"
         r="2"
         fill="#000000"
         id="circle2066"
         style="fill:#00a300;fill-opacity:1" /></g><g
       style="fill:#00a300;fill-opacity:1"
       id="g2085"
       transform="matrix(0.5433484,0,0,0.5433484,13.056434,30.005098)"><path
         d="m 209.41433,65.847768 c 0,-39.804044 -34.65727,-71.298661 -36.13283,-72.6192357 -1.67768,-1.5026621 -4.21747,-1.5032513 -5.89633,0 -1.47555,1.321164 -36.13519,32.8151917 -36.13519,72.6192357 0,9.612322 4.15265,19.423232 11.39313,26.918272 6.48266,6.71071 14.61943,10.83095 23.27063,11.88459 v 21.85754 c 0,2.4408 1.97821,4.41959 4.4196,4.41959 2.44138,0 4.41959,-1.97879 4.41959,-4.41959 v -21.85754 c 8.65062,-1.05364 16.78621,-5.17446 23.26828,-11.88459 7.24047,-7.49504 11.39312,-17.306539 11.39312,-26.918272 z M 147.76925,34.637183 165.91374,52.783448 V 71.250869 L 142.682,48.016179 c 1.32588,-4.681824 3.08075,-9.163882 5.08725,-13.378996 z m 26.98368,36.619579 v -18.46919 l 18.1445,-18.146264 c 2.00708,4.217472 3.76195,8.701297 5.08783,13.385478 z m 13.80858,-44.76106 c -0.0701,0.06246 -0.14261,0.12257 -0.20978,0.190337 l -13.5988,13.600564 V 7.5038218 c 4.05719,4.6364482 9.18804,11.1556442 13.80858,18.9918802 z M 165.91374,7.5032318 V 40.281889 l -13.59467,-13.59585 c -0.0695,-0.06895 -0.14201,-0.130231 -0.21449,-0.193873 4.6223,-7.835646 9.75198,-14.353663 13.80916,-18.9889342 z M 140.08917,65.847768 c 0,-2.515633 0.17266,-4.999445 0.47437,-7.44849 l 25.35079,25.35256 V 95.7313 C 150.86886,93.3123 140.08917,78.879088 140.08917,65.847768 Z M 174.75293,95.73071 V 83.756553 l 25.34843,-25.346668 c 0.30171,2.445509 0.47437,4.925785 0.47437,7.437883 -5.9e-4,13.03132 -10.77909,27.464532 -25.8228,29.882942 z"
         id="path2077"
         style="fill:#00a300;fill-opacity:1;stroke-width:0.589279" /></g></g></svg>
