<?xml version="1.0" encoding="UTF-8" standalone="no"?>
<!-- Uploaded to: SVG Repo, www.svgrepo.com, Generator: SVG Repo Mixer Tools -->

<svg
   fill="#000000"
   height="800px"
   width="800px"
   version="1.1"
   id="Capa_1"
   viewBox="0 0 285.535 285.535"
   xml:space="preserve"
   sodipodi:docname="machinery.svg"
   inkscape:version="1.2.2 (732a01da63, 2022-12-09)"
   xmlns:inkscape="http://www.inkscape.org/namespaces/inkscape"
   xmlns:sodipodi="http://sodipodi.sourceforge.net/DTD/sodipodi-0.dtd"
   xmlns="http://www.w3.org/2000/svg"
   xmlns:svg="http://www.w3.org/2000/svg"><defs
   id="defs7"><rect
     x="540.02389"
     y="449.22342"
     width="79.330944"
     height="103.22581"
     id="rect2359" /></defs><sodipodi:namedview
   id="namedview5"
   pagecolor="#ffffff"
   bordercolor="#000000"
   borderopacity="0.25"
   inkscape:showpageshadow="2"
   inkscape:pageopacity="0.0"
   inkscape:pagecheckerboard="0"
   inkscape:deskcolor="#d1d1d1"
   showgrid="false"
   inkscape:zoom="0.73981047"
   inkscape:cx="111.51505"
   inkscape:cy="327.11081"
   inkscape:window-width="1920"
   inkscape:window-height="1017"
   inkscape:window-x="-8"
   inkscape:window-y="-8"
   inkscape:window-maximized="1"
   inkscape:current-layer="Capa_1" />

<circle
   style="fill:#000000;fill-opacity:0.1;stroke:#ff0000;stroke-width:1.17653;stroke-dasharray:none;stroke-opacity:1"
   id="path219"
   cx="139.5484"
   cy="127.8083"
   r="16.595846" /><text
   xml:space="preserve"
   style="font-size:22.8428px;font-family:SpeedballNo3;-inkscape-font-specification:'SpeedballNo3, Normal';fill:#000000;fill-opacity:0.0297873;stroke:#ff0000;stroke-width:1.42696"
   x="107.80055"
   y="56.970543"
   id="text2295"><tspan
     sodipodi:role="line"
     style="stroke-width:1.42696"
     x="107.80055"
     y="56.970543"
     id="tspan2303" /><tspan
     sodipodi:role="line"
     style="stroke-width:1.42696"
     x="107.80055"
     y="85.52404"
     id="tspan2305" /></text><text
   xml:space="preserve"
   transform="scale(0.35691875)"
   id="text2357"
   style="font-size:64px;font-family:SpeedballNo3;-inkscape-font-specification:'SpeedballNo3, Normal';white-space:pre;shape-inside:url(#rect2359);display:inline;fill:#000000;fill-opacity:0.0297873;stroke:#ff0000;stroke-width:3.998" /><g
   id="Layer_2"
   transform="matrix(0.74757406,0,0,0.74757406,119.22136,108.63239)"
   style="fill:#d40000;fill-opacity:0.839216;stroke:#ff0000;stroke-opacity:1">



<g
   style="fill:#d40000;fill-opacity:0.7;stroke:#ff0000;stroke-width:0.72027049;stroke-dasharray:none;stroke-opacity:0.7"
   id="g22240"
   transform="matrix(1.2342388,0,0,1.2342388,-284.61372,-203.07167)"><g
     style="fill:#000000;stroke-width:2.54933135;stroke-dasharray:none"
     id="g28064"
     transform="matrix(0.2825331,0,0,0.2825331,231.88068,170.73709)"><path
       fill-rule="evenodd"
       clip-rule="evenodd"
       d="m 85.495835,27.191689 c -14.837327,0 -27.090334,11.591142 -27.913418,26.405645 l -0.725955,13.0698 c -0.07429,1.335378 0.988513,2.458988 2.325989,2.458988 H 114.8956 c 0.66862,0 1.20003,-0.561693 1.16298,-1.229383 l -0.97427,-17.537442 c -0.0685,-1.234503 -1.0896,-2.200393 -2.3262,-2.200393 H 95.15963 L 94.117094,29.392081 C 94.0486,28.157578 93.027493,27.191689 91.790893,27.191689 Z m 0.478057,6.989071 h -0.243221 c -11.53057,0 -21.052713,8.722595 -21.692209,19.870865 l -0.09599,1.673415 c -0.04775,0.832165 0.768101,1.44371 1.553205,1.164379 l 15.07426,-5.362248 c 0.959601,-0.3413 1.97418,-0.516027 2.996447,-0.516027 h 2.407505 c 0.643225,0 1.164847,-0.521617 1.164847,-1.164845 V 35.345606 c 0,-0.643228 -0.521622,-1.164846 -1.164847,-1.164846 z"
       fill="#333333"
       id="path34052"
       style="fill:#d40000;fill-opacity:0.7;stroke:#ff0000;stroke-width:2.54933135;stroke-dasharray:none;stroke-opacity:1" /><path
       fill-rule="evenodd"
       clip-rule="evenodd"
       d="m 42.659602,21.910513 c 0.135586,-0.449165 -0.293114,-0.876896 -0.755061,-0.79559 -1.135524,0.199887 -2.331376,0.160749 -3.518341,-0.157254 -1.186603,-0.318003 -2.241549,-0.881787 -3.124822,-1.622164 -0.359547,-0.301461 -0.944507,-0.145373 -1.051742,0.31148 l -6.434374,27.411373 c -6e-5,0 0,2.47e-4 0,2.47e-4 0,0 0,0 0,2.47e-4 l -0.968807,5.364812 c -0.861269,4.769342 2.077069,9.402864 6.758559,10.657173 l 0.409296,0.109726 c 3.600732,0.96472 7.429959,-0.309151 9.735221,-3.238738 l 5.489685,-6.976258 c 0.633439,-0.805141 -0.006,-1.977208 -1.025991,-1.88006 l -2.88067,0.274438 c -0.05864,0.0056 -0.117875,0.0024 -0.175422,-0.01002 l -6.09024,-1.286921 -3.920505,-1.050457 c -0.317596,-0.08503 -0.501843,-0.416083 -0.406818,-0.730824 z"
       fill="#333333"
       id="path34054"
       style="fill:#d40000;fill-opacity:0.7;stroke:#ff0000;stroke-width:2.54933135;stroke-dasharray:none;stroke-opacity:1" /><path
       d="m 46.122935,14.589809 c -0.832677,3.106992 -4.026229,4.950942 -7.133339,4.118311 -3.10705,-0.832399 -4.950848,-4.026125 -4.118352,-7.133164 0.832556,-3.1070144 4.026168,-4.9508719 7.133218,-4.1183567 3.106868,0.8325382 4.950848,4.0261707 4.118473,7.1332097 z"
       fill="#333333"
       id="path34056"
       style="fill:#d40000;fill-opacity:0.7;stroke:#ff0000;stroke-width:2.54933135;stroke-dasharray:none;stroke-opacity:1" /><path
       fill-rule="evenodd"
       clip-rule="evenodd"
       d="m 48.205202,17.484333 c -0.360877,-0.112058 -0.521428,-0.532101 -0.358096,-0.872702 0.215015,-0.448932 0.392068,-0.923955 0.525599,-1.422229 0.427491,-1.595908 0.350843,-3.208148 -0.132564,-4.667466 -0.154022,-0.4651 0.245784,-0.972459 0.724535,-0.8682289 11.073707,2.4106939 22.040955,5.3817719 27.965355,15.4584989 0.189639,0.322662 0.01983,0.735483 -0.337338,0.847076 -2.601568,0.812362 -5.054964,1.966957 -7.30614,3.411831 -0.277701,0.178222 -0.648352,0.09761 -0.831934,-0.17659 -4.288962,-6.401524 -12.489711,-9.304086 -20.249417,-11.71019 z"
       fill="#333333"
       id="path34058"
       style="fill:#d40000;fill-opacity:0.7;stroke:#ff0000;stroke-width:2.54933135;stroke-dasharray:none;stroke-opacity:1" /><path
       fill-rule="evenodd"
       clip-rule="evenodd"
       d="m 61.51214,71.45581 c -5.14652,0 -9.318731,4.172242 -9.318731,9.318762 0,5.146525 4.172211,9.318761 9.318731,9.318761 h 46.59381 c 5.14652,0 9.31876,-4.172236 9.31876,-9.318761 0,-5.14652 -4.17224,-9.318762 -9.31876,-9.318762 z m 6.989073,9.318762 c 0,2.573374 -2.086004,4.659384 -4.659378,4.659384 -2.573381,0 -4.659384,-2.08601 -4.659384,-4.659384 0,-2.573375 2.086003,-4.659384 4.659384,-4.659384 2.573374,0 4.659378,2.086009 4.659378,4.659384 z m 13.978142,0 c 0,2.573374 -2.086003,4.659384 -4.659383,4.659384 -2.573375,0 -4.659378,-2.08601 -4.659378,-4.659384 0,-2.573375 2.086003,-4.659384 4.659378,-4.659384 2.57338,0 4.659383,2.086009 4.659383,4.659384 z m 9.318762,4.659384 c 2.57338,0 4.659383,-2.08601 4.659383,-4.659384 0,-2.573375 -2.086003,-4.659384 -4.659383,-4.659384 -2.573375,0 -4.659378,2.086009 -4.659378,4.659384 0,2.573374 2.086003,4.659384 4.659378,4.659384 z m 18.637523,-4.659384 c 0,2.573374 -2.086,4.659384 -4.65938,4.659384 -2.57337,0 -4.65938,-2.08601 -4.65938,-4.659384 0,-2.573375 2.08601,-4.659384 4.65938,-4.659384 2.57338,0 4.65938,2.086009 4.65938,4.659384 z"
       fill="#333333"
       id="path34060"
       style="fill:#d40000;fill-opacity:0.7;stroke:#ff0000;stroke-width:2.54933135;stroke-dasharray:none;stroke-opacity:1" /></g></g></g></svg>
