<?xml version="1.0" encoding="UTF-8" standalone="no"?>
<!-- Uploaded to: SVG Repo, www.svgrepo.com, Generator: SVG Repo Mixer Tools -->

<svg
   fill="#000000"
   height="100"
   width="100"
   version="1.1"
   id="Capa_1"
   viewBox="0 0 34.461868 34.461871"
   xml:space="preserve"
   sodipodi:docname="plant.svg"
   inkscape:version="1.2.2 (732a01da63, 2022-12-09)"
   xmlns:inkscape="http://www.inkscape.org/namespaces/inkscape"
   xmlns:sodipodi="http://sodipodi.sourceforge.net/DTD/sodipodi-0.dtd"
   xmlns="http://www.w3.org/2000/svg"
   xmlns:svg="http://www.w3.org/2000/svg"><defs
   id="defs7"><rect
     x="540.02386"
     y="449.22342"
     width="79.33094"
     height="103.22581"
     id="rect2359" /></defs><sodipodi:namedview
   id="namedview5"
   pagecolor="#ffffff"
   bordercolor="#000000"
   borderopacity="0.25"
   inkscape:showpageshadow="2"
   inkscape:pageopacity="0.0"
   inkscape:pagecheckerboard="0"
   inkscape:deskcolor="#d1d1d1"
   showgrid="false"
   inkscape:zoom="5.9184838"
   inkscape:cx="29.652865"
   inkscape:cy="63.529785"
   inkscape:window-width="2560"
   inkscape:window-height="1377"
   inkscape:window-x="-8"
   inkscape:window-y="-8"
   inkscape:window-maximized="1"
   inkscape:current-layer="Capa_1" />

<circle
   style="fill:#000000;fill-opacity:0.1;stroke:#ff0000;stroke-width:1.17653;stroke-dasharray:none;stroke-opacity:1"
   id="path219"
   cx="17.230934"
   cy="17.230934"
   r="16.64267" /><g
   style="fill:#a90000;fill-opacity:0.84322;stroke:#ff0000;stroke-width:0.997186;stroke-opacity:1"
   id="g25316"
   transform="matrix(1.5166591,0,0,1.5166591,4.8078862,6.4035306)"><path
     d="M 7.5,15 V 7 m 0,0.5 v 3 m 0,-3 c 0,-2.20914 -1.79086,-4 -4,-4 h -3 v 3 c 0,2.20914 1.79086,4 4,4 h 3 m 0,-3 h 3 c 0.625482,0 1.217438,-0.1435689 1.744709,-0.3995512 C 13.579674,6.4523435 14.5,5.0836467 14.5,3.5 v -3 h -3 c -2.20914,0 -4,1.79086 -4,4 z m 0,0 4,-4 m -4,7 -4,-4"
     stroke="#000000"
     id="path25307"
     sodipodi:nodetypes="cccccscssccssscssccccc"
     style="fill:#d40000;fill-opacity:0.7;stroke:#ff0000;stroke-width:0.997186;stroke-opacity:1" /></g><text
   xml:space="preserve"
   style="font-size:22.8428px;font-family:SpeedballNo3;-inkscape-font-specification:'SpeedballNo3, Normal';fill:#000000;fill-opacity:0.0297873;stroke:#ff0000;stroke-width:1.42696"
   x="-14.563729"
   y="-53.653641"
   id="text2295"><tspan
     sodipodi:role="line"
     style="stroke-width:1.42696"
     x="-14.563729"
     y="-53.653641"
     id="tspan2303" /><tspan
     sodipodi:role="line"
     style="stroke-width:1.42696"
     x="-14.563729"
     y="-25.10014"
     id="tspan2305" /></text><text
   xml:space="preserve"
   transform="matrix(0.35691875,0,0,0.35691875,-122.36429,-110.62419)"
   id="text2357"
   style="font-size:64px;font-family:SpeedballNo3;-inkscape-font-specification:'SpeedballNo3, Normal';white-space:pre;shape-inside:url(#rect2359);fill:#000000;fill-opacity:0.0297873;stroke:#ff0000;stroke-width:3.998" /></svg>
