<?xml version="1.0" encoding="UTF-8" standalone="no"?>
<!-- Uploaded to: SVG Repo, www.svgrepo.com, Generator: SVG Repo Mixer Tools -->

<svg
   fill="#000000"
   height="800px"
   width="800px"
   version="1.1"
   id="Capa_1"
   viewBox="0 0 285.535 285.535"
   xml:space="preserve"
   sodipodi:docname="plant.svg"
   inkscape:version="1.2.2 (732a01da63, 2022-12-09)"
   xmlns:inkscape="http://www.inkscape.org/namespaces/inkscape"
   xmlns:sodipodi="http://sodipodi.sourceforge.net/DTD/sodipodi-0.dtd"
   xmlns="http://www.w3.org/2000/svg"
   xmlns:svg="http://www.w3.org/2000/svg"><defs
   id="defs7"><rect
     x="540.02389"
     y="449.22342"
     width="79.330944"
     height="103.22581"
     id="rect2359" /></defs><sodipodi:namedview
   id="namedview5"
   pagecolor="#ffffff"
   bordercolor="#000000"
   borderopacity="0.25"
   inkscape:showpageshadow="2"
   inkscape:pageopacity="0.0"
   inkscape:pagecheckerboard="0"
   inkscape:deskcolor="#d1d1d1"
   showgrid="false"
   inkscape:zoom="0.73981047"
   inkscape:cx="-102.05316"
   inkscape:cy="373.06852"
   inkscape:window-width="1920"
   inkscape:window-height="1017"
   inkscape:window-x="-8"
   inkscape:window-y="-8"
   inkscape:window-maximized="1"
   inkscape:current-layer="Capa_1" />

<circle
   style="fill:#000000;fill-opacity:0.1;stroke:#ff0000;stroke-width:1.17653;stroke-dasharray:none;stroke-opacity:1"
   id="path219"
   cx="139.5484"
   cy="127.8083"
   r="16.595846" /><g
   style="fill:#a90000;stroke:#ff0000;stroke-opacity:1;fill-opacity:0.84322035"
   id="g25316"
   transform="matrix(1.512392,0,0,1.512392,127.1603,117.01135)"><path
     d="M 7.5,15 V 7 m 0,0.5 v 3 m 0,-3 c 0,-2.20914 -1.79086,-4 -4,-4 h -3 v 3 c 0,2.20914 1.79086,4 4,4 h 3 m 0,-3 h 3 c 0.625482,0 1.217438,-0.1435689 1.744709,-0.3995512 C 13.579674,6.4523435 14.5,5.0836467 14.5,3.5 v -3 h -3 c -2.20914,0 -4,1.79086 -4,4 z m 0,0 4,-4 m -4,7 -4,-4"
     stroke="#000000"
     id="path25307"
     sodipodi:nodetypes="cccccscssccssscssccccc"
     style="stroke:#ff0000;stroke-opacity:1;fill:#d40000;fill-opacity:0.69999999" /></g><text
   xml:space="preserve"
   style="font-size:22.8428px;font-family:SpeedballNo3;-inkscape-font-specification:'SpeedballNo3, Normal';fill:#000000;fill-opacity:0.0297873;stroke:#ff0000;stroke-width:1.42696"
   x="107.80055"
   y="56.970543"
   id="text2295"><tspan
     sodipodi:role="line"
     style="stroke-width:1.42696"
     x="107.80055"
     y="56.970543"
     id="tspan2303" /><tspan
     sodipodi:role="line"
     style="stroke-width:1.42696"
     x="107.80055"
     y="85.52404"
     id="tspan2305" /></text><text
   xml:space="preserve"
   transform="scale(0.35691875)"
   id="text2357"
   style="fill:#000000;font-size:64px;stroke:#ff0000;stroke-width:3.998;-inkscape-font-specification:'SpeedballNo3, Normal';font-family:SpeedballNo3;fill-opacity:0.02978723;white-space:pre;shape-inside:url(#rect2359)" /></svg>
