<?xml version="1.0" encoding="UTF-8" standalone="no"?>
<!-- Uploaded to: SVG Repo, www.svgrepo.com, Generator: SVG Repo Mixer Tools -->

<svg
   width="800px"
   height="800px"
   viewBox="0 0 60.601 60.601"
   version="1.1"
   id="svg37895"
   sodipodi:docname="slope.svg"
   inkscape:version="1.2.2 (732a01da63, 2022-12-09)"
   xmlns:inkscape="http://www.inkscape.org/namespaces/inkscape"
   xmlns:sodipodi="http://sodipodi.sourceforge.net/DTD/sodipodi-0.dtd"
   xmlns="http://www.w3.org/2000/svg"
   xmlns:svg="http://www.w3.org/2000/svg"
   xmlns:rdf="http://www.w3.org/1999/02/22-rdf-syntax-ns#"
   xmlns:cc="http://creativecommons.org/ns#"
   xmlns:dc="http://purl.org/dc/elements/1.1/">
  <defs
     id="defs37899" />
  <sodipodi:namedview
     id="namedview37897"
     pagecolor="#ffffff"
     bordercolor="#000000"
     borderopacity="0.25"
     inkscape:showpageshadow="2"
     inkscape:pageopacity="0.0"
     inkscape:pagecheckerboard="0"
     inkscape:deskcolor="#d1d1d1"
     showgrid="false"
     inkscape:zoom="4"
     inkscape:cx="352.875"
     inkscape:cy="375.25"
     inkscape:window-width="1920"
     inkscape:window-height="1017"
     inkscape:window-x="-8"
     inkscape:window-y="-8"
     inkscape:window-maximized="1"
     inkscape:current-layer="svg37895" />
  <title
     id="title37875">崖崩れ・地滑り; Steep slope failure, landslide</title>
  <metadata
     id="metadata37877">
    <rdf:RDF>
      <cc:Work
         rdf:about="">
        <dc:format>image/svg+xml</dc:format>
        <dc:type
           rdf:resource="http://purl.org/dc/dcmitype/StillImage" />
        <dc:title>崖崩れ・地滑り; Steep slope failure, landslide</dc:title>
        <dc:source>http://www.ecomo.or.jp/barrierfree/pictogram/data/zukigo_panfu_jis110.pdf</dc:source>
      </cc:Work>
    </rdf:RDF>
  </metadata>
  <path
     d="m 30.46458,27.41632 0.291303,-0.509398 -0.839312,-0.451748 -0.51041,0.289792 0.489848,0.817751 z"
     id="path37881"
     style="fill:#d40000;fill-opacity:0.701031;stroke:#ff0000;stroke-width:0.0659009;stroke-dasharray:none;stroke-opacity:1" />
  <path
     id="path37883"
     d="m 27.522914,26.249818 c -9e-6,4.62e-4 -2.5e-5,9.63e-4 -3.3e-5,0.0014 h 0.0438 c -0.0032,-4.42e-4 -0.0062,-8.67e-4 -0.0093,-0.0013 z m 4.250103,0.02014 -0.488161,0.488097 -0.258213,1.046881 -0.430184,0.183007 -0.179001,0.666326 -0.520433,0.516925 -0.202552,0.754579 -0.494854,0.495353 -1.719079,0.461039 c -5.43e-4,0.0061 -0.0017,0.01157 -0.0033,0.01642 l 4.320276,8.36e-4 v -4.625752 c -0.0081,-0.0012 -0.01633,-0.0025 -0.0245,-0.0037 z"
     sodipodi:nodetypes="cccccccccccccccccc"
     style="fill:#ff0000;fill-opacity:1;stroke-width:0.108732;stroke:none" />
  <path
     d="m 29.426734,28.313358 0.102783,-0.352465 -0.109297,-0.19052 -0.579596,0.09125 -0.02206,0.219106 0.243667,0.274254 z"
     id="path37885"
     style="fill:#d40000;fill-opacity:0.701031;stroke:#ff0000;stroke-width:0.0659009;stroke-dasharray:none;stroke-opacity:1" />
  <path
     d="m 29.870468,28.918995 0.225119,-0.289293 -0.07772,-0.205567 -0.219607,-0.01605 -0.188019,0.114821 0.04261,0.364001 z"
     id="path37887"
     style="fill:#d40000;fill-opacity:0.701031;stroke:#ff0000;stroke-width:0.0659009;stroke-dasharray:none;stroke-opacity:1" />
  <path
     d="m 28.972995,30.01251 -0.0702,-0.208068 -0.364002,0.04913 -0.09927,0.352976 0.150919,0.159945 0.339941,-0.137883 z"
     id="path37889"
     style="fill:#d40000;fill-opacity:0.701031;stroke:#ff0000;stroke-width:0.0659009;stroke-dasharray:none;stroke-opacity:1" />
  <path
     d="m 28.01583,30.526378 0.178494,-0.128859 0.05214,-0.213593 -0.207069,-0.07421 -0.161945,0.148908 -5.1e-4,0.220105 z"
     id="path37891"
     style="fill:#d40000;fill-opacity:0.701031;stroke:#ff0000;stroke-width:0.0659009;stroke-dasharray:none;stroke-opacity:1" />
  <path
     d="m 29.239714,29.04284 -0.533971,-0.243668 -0.353976,0.09576 0.19002,0.555533 0.180495,0.125846 0.561545,-0.16947 z"
     id="path37893"
     style="fill:#d40000;fill-opacity:0.701031;stroke:#ff0000;stroke-width:0.0659009;stroke-dasharray:none;stroke-opacity:1" />
  <circle
     style="fill:#000000;fill-opacity:0;stroke:#ff0000;stroke-width:0.218585;stroke-dasharray:none;stroke-opacity:1"
     id="path219"
     cx="29.697983"
     cy="28.606569"
     r="3.0832989" />
  <path
     style="fill:#ff0000;fill-opacity:1;stroke:none;stroke-width:0.530555;stroke-dasharray:none;stroke-opacity:1"
     d="m 31.652437,28.67095 0.135198,-2.180083 0.212715,0.108987 c 0.751151,0.38486 1.010478,2.279175 0.520771,3.368778 -0.138341,0.307811 -0.132575,0.471239 -0.390786,0.636488 l -0.486695,0.409618 z"
     id="path54399"
     sodipodi:nodetypes="ccssscc" />
  <path
     style="fill:#ff0000;fill-opacity:1;stroke:none;stroke-width:0.0937898;stroke-dasharray:none;stroke-opacity:1"
     d="m 29.441075,31.717817 c -0.602303,-0.05357 -1.038748,-0.1351 -1.449673,-0.596278 l -0.259727,-0.258515 2.006052,-0.03321 2.039208,-5.8e-5 -0.1881,0.257202 c -0.08807,0.120421 -0.482091,0.281902 -0.619983,0.355049 -0.484793,0.257167 -0.97492,0.324985 -1.527777,0.275814 z"
     id="path54884"
     sodipodi:nodetypes="sscccsss" />
  <path
     style="fill:#ff0000;fill-opacity:1;stroke:none;stroke-width:0.176799;stroke-dasharray:none;stroke-opacity:1"
     d=""
     id="path54886"
     transform="scale(0.07575125)" />
  <path
     style="fill:#ff0000;fill-opacity:1;stroke:none;stroke-width:0.0117237;stroke-dasharray:none;stroke-opacity:1"
     d="m 31.799297,30.284171 3.65e-4,-0.546183 3.71e-4,0.538857 c 2.06e-4,0.296372 8.64e-4,0.538854 0.0015,0.53885 0.0019,-1e-5 0.12513,-0.122869 0.146941,-0.146521 0.09368,-0.101587 0.184946,-0.218187 0.269303,-0.344069 0.123652,-0.184521 0.220763,-0.367646 0.29638,-0.558895 0.0083,-0.021 0.01146,-0.02746 0.01342,-0.02748 0.0014,-8e-6 0.0025,2.25e-4 0.0025,5.18e-4 0,0.0013 -0.03146,0.07875 -0.04162,0.102477 -0.142801,0.33379 -0.349873,0.644944 -0.598936,0.899975 -0.03986,0.04082 -0.08821,0.08865 -0.08961,0.08865 -5.57e-4,0 -8.54e-4,-0.245783 -6.57e-4,-0.546184 z"
     id="path54888" />
  <circle
     style="fill:#000000;fill-opacity:0.1;stroke:#ff0000;stroke-width:0.218585;stroke-dasharray:none;stroke-opacity:1"
     id="path219-0"
     cx="29.69449"
     cy="28.615034"
     r="3.0832989" />
</svg>
