<?xml version="1.0" encoding="UTF-8" standalone="no"?>
<!-- Uploaded to: SVG Repo, www.svgrepo.com, Generator: SVG Repo Mixer Tools -->

<svg
   width="100.00002"
   height="99.913643"
   viewBox="0 0 7.5751267 7.5685833"
   version="1.1"
   id="svg37895"
   sodipodi:docname="slope.svg"
   inkscape:version="1.2.2 (732a01da63, 2022-12-09)"
   xmlns:inkscape="http://www.inkscape.org/namespaces/inkscape"
   xmlns:sodipodi="http://sodipodi.sourceforge.net/DTD/sodipodi-0.dtd"
   xmlns="http://www.w3.org/2000/svg"
   xmlns:svg="http://www.w3.org/2000/svg"
   xmlns:rdf="http://www.w3.org/1999/02/22-rdf-syntax-ns#"
   xmlns:cc="http://creativecommons.org/ns#"
   xmlns:dc="http://purl.org/dc/elements/1.1/">
  <defs
     id="defs37899" />
  <sodipodi:namedview
     id="namedview37897"
     pagecolor="#ffffff"
     bordercolor="#000000"
     borderopacity="0.25"
     inkscape:showpageshadow="2"
     inkscape:pageopacity="0.0"
     inkscape:pagecheckerboard="0"
     inkscape:deskcolor="#d1d1d1"
     showgrid="false"
     inkscape:zoom="4"
     inkscape:cx="-18.625"
     inkscape:cy="40"
     inkscape:window-width="2560"
     inkscape:window-height="1377"
     inkscape:window-x="-8"
     inkscape:window-y="-8"
     inkscape:window-maximized="1"
     inkscape:current-layer="svg37895" />
  <title
     id="title37875">崖崩れ・地滑り; Steep slope failure, landslide</title>
  <metadata
     id="metadata37877">
    <rdf:RDF>
      <cc:Work
         rdf:about="">
        <dc:format>image/svg+xml</dc:format>
        <dc:type
           rdf:resource="http://purl.org/dc/dcmitype/StillImage" />
        <dc:title>崖崩れ・地滑り; Steep slope failure, landslide</dc:title>
        <dc:source>http://www.ecomo.or.jp/barrierfree/pictogram/data/zukigo_panfu_jis110.pdf</dc:source>
      </cc:Work>
    </rdf:RDF>
  </metadata>
  <path
     d="m 4.7036522,2.3625348 0.347318,-0.606322 -1.000704,-0.537703 -0.608557,0.344931 0.584041,0.973346 z"
     id="path37881"
     style="fill:#d40000;fill-opacity:0.701031;stroke:#ff0000;stroke-width:0.0659009;stroke-dasharray:none;stroke-opacity:1" />
  <path
     id="path37883"
     d="m 1.1963312,0.97408085 c -10e-6,5.5e-4 -3e-5,0.0011 -3.9e-5,0.0017 h 0.05222 c -0.0038,-5.26e-4 -0.0074,-0.001 -0.01109,-0.0015 z m 5.067358,0.02397 -0.58203,0.58096795 -0.307865,1.246072 -0.512904,0.217828 -0.213421,0.793109 -0.620508,0.615281 -0.241501,0.898153 -0.590009,0.589605 -2.049642,0.548761 c -6.47e-4,0.0073 -0.002,0.01377 -0.0039,0.01954 l 5.151024,9.96e-4 v -5.5059 c -0.0097,-0.0014 -0.01947,-0.003 -0.02921,-0.0044 z"
     sodipodi:nodetypes="cccccccccccccccccc"
     style="fill:#ff0000;fill-opacity:1;stroke:none;stroke-width:0.108732" />
  <path
     d="m 3.4662382,3.4302528 0.122547,-0.419529 -0.130314,-0.22677 -0.691047,0.108612 -0.0263,0.260796 0.290522,0.326436 z"
     id="path37885"
     style="fill:#d40000;fill-opacity:0.701031;stroke:#ff0000;stroke-width:0.0659009;stroke-dasharray:none;stroke-opacity:1" />
  <path
     d="m 3.9952982,4.1511248 0.268407,-0.344337 -0.09267,-0.24468 -0.261835,-0.0191 -0.224174,0.136668 0.0508,0.43326 z"
     id="path37887"
     style="fill:#d40000;fill-opacity:0.701031;stroke:#ff0000;stroke-width:0.0659009;stroke-dasharray:none;stroke-opacity:1" />
  <path
     d="m 2.9252492,5.4527048 -0.0837,-0.247657 -0.433996,0.05848 -0.118359,0.420137 0.17994,0.190378 0.405308,-0.164119 z"
     id="path37889"
     style="fill:#d40000;fill-opacity:0.701031;stroke:#ff0000;stroke-width:0.0659009;stroke-dasharray:none;stroke-opacity:1" />
  <path
     d="m 1.7840302,6.0643468 0.212817,-0.153377 0.06217,-0.254234 -0.246886,-0.08833 -0.193086,0.177241 -6.08e-4,0.261985 z"
     id="path37891"
     style="fill:#d40000;fill-opacity:0.701031;stroke:#ff0000;stroke-width:0.0659009;stroke-dasharray:none;stroke-opacity:1" />
  <path
     d="m 3.2432562,4.2985348 -0.636649,-0.290031 -0.422042,0.11398 0.226559,0.661235 0.215202,0.149791 0.669525,-0.201715 z"
     id="path37893"
     style="fill:#d40000;fill-opacity:0.701031;stroke:#ff0000;stroke-width:0.0659009;stroke-dasharray:none;stroke-opacity:1" />
  <ellipse
     style="fill:#000000;fill-opacity:0;stroke:#ff0000;stroke-width:0.218585;stroke-dasharray:none;stroke-opacity:1"
     id="path219"
     cx="3.7896461"
     cy="3.7792544"
     rx="3.676188"
     ry="3.6699619" />
  <path
     style="fill:#ff0000;fill-opacity:1;stroke:none;stroke-width:0.530555;stroke-dasharray:none;stroke-opacity:1"
     d="m 6.1199222,3.8558848 0.161196,-2.59489 0.253618,0.129724 c 0.89559,0.458088 1.204783,2.712836 0.62091,4.009759 -0.164943,0.366379 -0.158068,0.560902 -0.46593,0.757594 l -0.580282,0.487556 z"
     id="path54399"
     sodipodi:nodetypes="ccssscc" />
  <path
     style="fill:#ff0000;fill-opacity:1;stroke:none;stroke-width:0.0937898;stroke-dasharray:none;stroke-opacity:1"
     d="m 3.4833362,7.4824828 c -0.71812,-0.06376 -1.238489,-0.160806 -1.728431,-0.709733 l -0.30967,-0.307703 2.391797,-0.03953 2.431328,-6.9e-5 -0.22427,0.30614 c -0.105005,0.143334 -0.574792,0.33554 -0.7392,0.422605 -0.578014,0.306098 -1.162387,0.38682 -1.821554,0.328293 z"
     id="path54884"
     sodipodi:nodetypes="sscccsss" />
  <path
     style="fill:#ff0000;fill-opacity:1;stroke:none;stroke-width:0.0133927;stroke-dasharray:none;stroke-opacity:1"
     d=""
     id="path54886" />
  <path
     style="fill:#ff0000;fill-opacity:1;stroke:none;stroke-width:0.0117237;stroke-dasharray:none;stroke-opacity:1"
     d="m 6.2950222,5.7760548 4.35e-4,-0.650106 4.43e-4,0.641386 c 2.45e-4,0.352763 10e-4,0.641383 0.0018,0.641378 0.0023,-1.2e-5 0.149191,-0.146248 0.175196,-0.1744 0.111694,-0.120916 0.22051,-0.259702 0.321088,-0.409535 0.147429,-0.21963 0.263213,-0.437599 0.353371,-0.665237 0.0099,-0.025 0.01366,-0.03269 0.016,-0.03271 0.0017,-9e-6 0.003,2.68e-4 0.003,6.17e-4 0,0.0015 -0.03751,0.09373 -0.04962,0.121975 -0.17026,0.397301 -0.41715,0.767659 -0.714106,1.071215 -0.04752,0.04859 -0.105172,0.105517 -0.106841,0.105517 -6.64e-4,0 -10e-4,-0.292548 -7.83e-4,-0.650107 z"
     id="path54888" />
  <ellipse
     style="fill:#000000;fill-opacity:0.1;stroke:#ff0000;stroke-width:0.218585;stroke-dasharray:none;stroke-opacity:1"
     id="path219-0"
     cx="3.7854805"
     cy="3.7893291"
     rx="3.676188"
     ry="3.6699619" />
</svg>
